#N canvas 346 184 1297 735 10;
#X obj 248 142 vline~;
#X obj 165 226 osc~;
#X obj 164 772 dac~ 1 2;
#X obj 164 456 *~ 0;
#X obj 164 291 *~;
#X obj 315 31 bng 15 250 50 0 empty empty empty 17 7 0 10 -262144 -1
-1;
#X obj 165 143 vline~;
#X obj 776 238 noise~;
#X obj 776 291 *~;
#X obj 876 143 vline~;
#X obj 190 551 vsl 15 70 0 127 0 0 empty empty volume 0 -9 0 10 -262144
-1 -1 3700 1;
#X obj 190 645 / 127;
#X obj 165 672 *~ 0;
#X obj 880 305 vsl 15 70 0 127 0 0 empty empty volume 0 -9 0 10 -262144
-1 -1 100 1;
#X obj 879 381 / 127;
#X obj 854 420 *~ 0;
#X floatatom 879 402 5 0 0 0 - - -, f 5;
#X obj 581 142 vline~;
#X obj 475 225 osc~;
#X obj 474 290 *~;
#X obj 475 142 vline~;
#X obj 475 453 *~ 0;
#X obj 473 79 bng 15 250 50 0 empty empty empty 17 7 0 10 -262144 -1
-1;
#X obj 166 86 bng 15 250 50 0 empty empty empty 17 7 0 10 -262144 -1
-1;
#X obj 876 76 bng 15 250 50 0 empty empty empty 17 7 0 10 -262144 -1
-1;
#X msg 584 119 1 10 \, 0.5 100 10 \, 0 100 110;
#X msg 248 119 1 10 \, 0.5 100 10 \, 0 300 110;
#X msg 165 120 50 \, 20 410;
#X obj 316 4 inlet;
#X text 332 28 trigger;
#X text 100 115 low-end;
#X text 521 85 body;
#X text 891 95 top;
#X obj 776 344 hip~ 10000;
#X msg 877 119 1 10 \, 0 10 30;
#X msg 473 122 200 \, 60 50;
#X obj 500 338 vsl 15 70 0 127 0 0 empty empty volume 0 -9 0 10 -262144
-1 -1 6900 1;
#X obj 500 414 / 127;
#X floatatom 500 434 5 0 0 0 - - -, f 5;
#X obj 189 337 vsl 15 70 0 127 0 0 empty empty volume 0 -9 0 10 -262144
-1 -1 6900 1;
#X obj 189 415 / 127;
#X floatatom 189 436 5 0 0 0 - - -, f 5;
#X obj 293 725 vu 15 120 empty empty -1 -8 0 10 -66577 -1 1 0;
#X connect 0 0 4 1;
#X connect 1 0 4 0;
#X connect 3 0 12 0;
#X connect 4 0 3 0;
#X connect 5 0 23 0;
#X connect 5 0 22 0;
#X connect 5 0 24 0;
#X connect 6 0 1 0;
#X connect 7 0 8 0;
#X connect 8 0 33 0;
#X connect 9 0 8 1;
#X connect 10 0 11 0;
#X connect 11 0 12 1;
#X connect 12 0 2 0;
#X connect 12 0 2 1;
#X connect 13 0 14 0;
#X connect 14 0 16 0;
#X connect 15 0 12 0;
#X connect 16 0 15 1;
#X connect 17 0 19 1;
#X connect 18 0 19 0;
#X connect 19 0 21 0;
#X connect 20 0 18 0;
#X connect 21 0 12 0;
#X connect 22 0 35 0;
#X connect 22 0 25 0;
#X connect 23 0 27 0;
#X connect 23 0 26 0;
#X connect 24 0 34 0;
#X connect 25 0 17 0;
#X connect 26 0 0 0;
#X connect 27 0 6 0;
#X connect 28 0 5 0;
#X connect 33 0 15 0;
#X connect 34 0 9 0;
#X connect 35 0 20 0;
#X connect 36 0 37 0;
#X connect 37 0 38 0;
#X connect 38 0 21 1;
#X connect 39 0 40 0;
#X connect 40 0 41 0;
#X connect 41 0 3 1;
