#N canvas 349 180 1297 735 10;
#X obj 248 142 vline~;
#X obj 165 226 osc~;
#X obj 159 692 dac~ 1 2;
#X obj 189 350 vsl 15 70 0 127 0 0 empty empty volume 0 -9 0 10 -262144
-1 -1 6100 1;
#X obj 189 429 / 127;
#X obj 164 456 *~ 0;
#X obj 164 291 *~;
#X obj 315 31 bng 15 250 50 0 empty empty empty 17 7 0 10 -262144 -1
-1;
#X obj 165 143 vline~;
#X obj 774 295 noise~;
#X obj 774 351 *~;
#X obj 876 143 vline~;
#X obj 190 551 vsl 15 70 0 127 0 0 empty empty volume 0 -9 0 10 -262144
-1 -1 1900 1;
#X obj 190 645 / 127;
#X obj 165 672 *~ 0;
#X obj 879 293 vsl 15 70 0 127 0 0 empty empty volume 0 -9 0 10 -262144
-1 -1 200 1;
#X obj 879 381 / 127;
#X obj 854 434 *~ 0;
#X obj 774 404 hip~;
#X floatatom 799 383 10 0 0 0 - - -, f 10;
#X floatatom 879 406 5 0 0 0 - - -, f 5;
#X obj 581 142 vline~;
#X obj 475 225 osc~;
#X obj 474 290 *~;
#X obj 475 142 vline~;
#X obj 510 346 vsl 15 70 0 127 0 0 empty empty volume 0 -9 0 10 -262144
-1 -1 4600 1;
#X obj 510 425 / 127;
#X obj 475 453 *~ 0;
#X obj 473 79 bng 15 250 50 0 empty empty empty 17 7 0 10 -262144 -1
-1;
#X obj 166 86 bng 15 250 50 0 empty empty empty 17 7 0 10 -262144 -1
-1;
#X obj 876 76 bng 15 250 50 0 empty empty empty 17 7 0 10 -262144 -1
-1;
#X msg 584 119 1 10 \, 0.5 100 10 \, 0 100 110;
#X msg 473 122 140 \, 40 110;
#X msg 248 119 1 10 \, 0.5 100 10 \, 0 300 110;
#X msg 165 120 50 \, 20 410;
#X msg 877 119 1 10 \, 0.8 10 30 \, 0 200 40;
#X obj 316 4 inlet;
#X text 332 28 trigger;
#X text 100 115 low-end;
#X text 521 85 body;
#X text 891 95 top;
#X connect 0 0 6 1;
#X connect 1 0 6 0;
#X connect 3 0 4 0;
#X connect 4 0 5 1;
#X connect 5 0 14 0;
#X connect 6 0 5 0;
#X connect 7 0 29 0;
#X connect 7 0 28 0;
#X connect 7 0 30 0;
#X connect 8 0 1 0;
#X connect 9 0 10 0;
#X connect 10 0 18 0;
#X connect 11 0 10 1;
#X connect 12 0 13 0;
#X connect 13 0 14 1;
#X connect 14 0 2 0;
#X connect 14 0 2 1;
#X connect 15 0 16 0;
#X connect 16 0 20 0;
#X connect 17 0 14 0;
#X connect 18 0 17 0;
#X connect 19 0 18 1;
#X connect 20 0 17 1;
#X connect 21 0 23 1;
#X connect 22 0 23 0;
#X connect 23 0 27 0;
#X connect 24 0 22 0;
#X connect 25 0 26 0;
#X connect 26 0 27 1;
#X connect 27 0 14 0;
#X connect 28 0 32 0;
#X connect 28 0 31 0;
#X connect 29 0 34 0;
#X connect 29 0 33 0;
#X connect 30 0 35 0;
#X connect 31 0 21 0;
#X connect 32 0 24 0;
#X connect 33 0 0 0;
#X connect 34 0 8 0;
#X connect 35 0 11 0;
#X connect 36 0 7 0;
