#N canvas 339 161 1297 735 10;
#X obj 248 142 vline~;
#X obj 165 226 osc~;
#X obj 164 772 dac~ 1 2;
#X obj 164 456 *~ 0;
#X obj 164 291 *~;
#X obj 315 31 bng 15 250 50 0 empty empty empty 17 7 0 10 -262144 -1
-1;
#X obj 165 143 vline~;
#X obj 815 226 noise~;
#X obj 814 279 *~;
#X obj 876 143 vline~;
#X obj 190 551 vsl 15 70 0 127 0 0 empty empty volume 0 -9 0 10 -262144
-1 -1 3400 1;
#X obj 190 645 / 127;
#X obj 165 672 *~ 0;
#X obj 906 304 vsl 15 70 0 127 0 0 empty empty volume 0 -9 0 10 -262144
-1 -1 6600 1;
#X obj 907 380 / 127;
#X floatatom 907 401 5 0 0 0 - - -, f 5;
#X obj 581 142 vline~;
#X obj 472 224 osc~;
#X obj 474 290 *~;
#X obj 473 144 vline~;
#X obj 475 453 *~ 0;
#X obj 473 79 bng 15 250 50 0 empty empty empty 17 7 0 10 -262144 -1
-1;
#X obj 166 86 bng 15 250 50 0 empty empty empty 17 7 0 10 -262144 -1
-1;
#X obj 877 76 bng 15 250 50 0 empty empty empty 17 7 0 10 -262144 -1
-1;
#X msg 584 119 1 10 \, 0.5 100 10 \, 0 100 110;
#X msg 248 119 1 10 \, 0.5 100 10 \, 0 300 110;
#X obj 316 4 inlet;
#X text 332 28 trigger;
#X text 100 115 low-end;
#X text 521 85 body;
#X text 891 95 top;
#X obj 500 338 vsl 15 70 0 127 0 0 empty empty volume 0 -9 0 10 -262144
-1 -1 6500 1;
#X obj 500 414 / 127;
#X floatatom 500 434 5 0 0 0 - - -, f 5;
#X obj 189 337 vsl 15 70 0 127 0 0 empty empty volume 0 -9 0 10 -262144
-1 -1 3200 1;
#X obj 189 415 / 127;
#X floatatom 189 436 5 0 0 0 - - -, f 5;
#X obj 293 725 vu 15 120 empty empty -1 -8 0 10 -66577 -1 1 0;
#X obj 813 433 *~ 0.005;
#X msg 473 120 240 \, 50 50;
#X obj 1102 139 vline~;
#X obj 1101 248 snapshot~;
#X obj 1154 225 metro 1;
#X obj 1154 206 tgl 15 0 empty empty empty 17 7 0 10 -262144 -1 -1
1 1;
#X msg 165 119 40 \, 40 410;
#X msg 877 119 1 10 \, 0.8 10 10 \, 0 500 40;
#X msg 1102 117 100 \, 400 100;
#X obj 1154 165 loadbang;
#X msg 1154 185 1, f 2;
#X obj 814 329 bp~ 220 10;
#X connect 0 0 4 1;
#X connect 1 0 4 0;
#X connect 3 0 12 0;
#X connect 4 0 3 0;
#X connect 5 0 22 0;
#X connect 5 0 21 0;
#X connect 5 0 23 0;
#X connect 6 0 1 0;
#X connect 7 0 8 0;
#X connect 8 0 49 0;
#X connect 9 0 8 1;
#X connect 10 0 11 0;
#X connect 11 0 12 1;
#X connect 12 0 2 0;
#X connect 12 0 2 1;
#X connect 13 0 14 0;
#X connect 14 0 15 0;
#X connect 15 0 38 1;
#X connect 16 0 18 1;
#X connect 17 0 18 0;
#X connect 18 0 20 0;
#X connect 19 0 17 0;
#X connect 20 0 12 0;
#X connect 21 0 39 0;
#X connect 21 0 24 0;
#X connect 22 0 44 0;
#X connect 22 0 25 0;
#X connect 23 0 45 0;
#X connect 23 0 46 0;
#X connect 24 0 16 0;
#X connect 25 0 0 0;
#X connect 26 0 5 0;
#X connect 31 0 32 0;
#X connect 32 0 33 0;
#X connect 33 0 20 1;
#X connect 34 0 35 0;
#X connect 35 0 36 0;
#X connect 36 0 3 1;
#X connect 38 0 12 0;
#X connect 39 0 19 0;
#X connect 40 0 41 0;
#X connect 41 0 49 1;
#X connect 42 0 41 0;
#X connect 43 0 42 0;
#X connect 44 0 6 0;
#X connect 45 0 9 0;
#X connect 46 0 40 0;
#X connect 47 0 48 0;
#X connect 48 0 43 0;
#X connect 49 0 38 0;
